<mxfile host="app.diagrams.net" agent="Mozilla/5.0 (Windows NT 10.0; Win64; x64) AppleWebKit/537.36 (KHTML, like Gecko) Chrome/141.0.0.0 Safari/537.36" version="28.2.5">
  <diagram name="Page-1" id="yyj3E-sS2wMWxZeezF2Q">
    <mxGraphModel dx="1985" dy="586" grid="1" gridSize="10" guides="1" tooltips="1" connect="1" arrows="1" fold="1" page="1" pageScale="1" pageWidth="827" pageHeight="1169" math="0" shadow="0">
      <root>
        <mxCell id="0" />
        <mxCell id="1" parent="0" />
        <mxCell id="24Q81aQCciNCpTfDXiNK-2" value="" style="rounded=0;whiteSpace=wrap;html=1;dashed=1;fillColor=none;strokeColor=default;" parent="1" vertex="1">
          <mxGeometry x="30" y="160" width="140" height="410" as="geometry" />
        </mxCell>
        <mxCell id="24Q81aQCciNCpTfDXiNK-3" value="Data Flow Diagram" style="text;html=1;align=center;verticalAlign=middle;whiteSpace=wrap;rounded=0;fontSize=24;" parent="1" vertex="1">
          <mxGeometry x="20" y="20" width="220" height="30" as="geometry" />
        </mxCell>
        <mxCell id="24Q81aQCciNCpTfDXiNK-4" value="Sources" style="rounded=1;whiteSpace=wrap;html=1;fillColor=light-dark(#FFFFFF,#FFFFFF);dashed=1;fontSize=24;strokeColor=none;fontColor=light-dark(#000000,#000000);" parent="1" vertex="1">
          <mxGeometry x="45" y="140" width="110" height="40" as="geometry" />
        </mxCell>
        <mxCell id="24Q81aQCciNCpTfDXiNK-21" style="edgeStyle=orthogonalEdgeStyle;rounded=0;orthogonalLoop=1;jettySize=auto;html=1;entryX=0;entryY=0.5;entryDx=0;entryDy=0;" parent="1" source="24Q81aQCciNCpTfDXiNK-5" target="24Q81aQCciNCpTfDXiNK-26" edge="1">
          <mxGeometry relative="1" as="geometry">
            <mxPoint x="236" y="285" as="targetPoint" />
          </mxGeometry>
        </mxCell>
        <mxCell id="24Q81aQCciNCpTfDXiNK-29" style="edgeStyle=orthogonalEdgeStyle;rounded=0;orthogonalLoop=1;jettySize=auto;html=1;entryX=0;entryY=0.5;entryDx=0;entryDy=0;" parent="1" source="24Q81aQCciNCpTfDXiNK-5" target="24Q81aQCciNCpTfDXiNK-27" edge="1">
          <mxGeometry relative="1" as="geometry" />
        </mxCell>
        <mxCell id="24Q81aQCciNCpTfDXiNK-5" value="" style="image;aspect=fixed;html=1;points=[];align=center;fontSize=12;image=img/lib/azure2/general/Folder_Blank.svg;" parent="1" vertex="1">
          <mxGeometry x="55.5" y="257" width="69" height="56.00000000000001" as="geometry" />
        </mxCell>
        <mxCell id="24Q81aQCciNCpTfDXiNK-31" style="edgeStyle=orthogonalEdgeStyle;rounded=0;orthogonalLoop=1;jettySize=auto;html=1;entryX=0;entryY=0.75;entryDx=0;entryDy=0;" parent="1" source="24Q81aQCciNCpTfDXiNK-6" target="24Q81aQCciNCpTfDXiNK-30" edge="1">
          <mxGeometry relative="1" as="geometry" />
        </mxCell>
        <mxCell id="24Q81aQCciNCpTfDXiNK-34" style="edgeStyle=orthogonalEdgeStyle;rounded=0;orthogonalLoop=1;jettySize=auto;html=1;entryX=0;entryY=0.5;entryDx=0;entryDy=0;" parent="1" source="24Q81aQCciNCpTfDXiNK-6" target="24Q81aQCciNCpTfDXiNK-32" edge="1">
          <mxGeometry relative="1" as="geometry" />
        </mxCell>
        <mxCell id="24Q81aQCciNCpTfDXiNK-35" style="edgeStyle=orthogonalEdgeStyle;rounded=0;orthogonalLoop=1;jettySize=auto;html=1;entryX=0;entryY=0.75;entryDx=0;entryDy=0;" parent="1" source="24Q81aQCciNCpTfDXiNK-6" target="24Q81aQCciNCpTfDXiNK-33" edge="1">
          <mxGeometry relative="1" as="geometry" />
        </mxCell>
        <mxCell id="24Q81aQCciNCpTfDXiNK-6" value="" style="image;aspect=fixed;html=1;points=[];align=center;fontSize=12;image=img/lib/azure2/general/Folder_Blank.svg;" parent="1" vertex="1">
          <mxGeometry x="55.5" y="467" width="69" height="56.00000000000001" as="geometry" />
        </mxCell>
        <mxCell id="24Q81aQCciNCpTfDXiNK-7" value="CRM" style="text;html=1;align=center;verticalAlign=middle;whiteSpace=wrap;rounded=0;fontSize=24;fontStyle=1" parent="1" vertex="1">
          <mxGeometry x="60" y="313" width="60" height="30" as="geometry" />
        </mxCell>
        <mxCell id="24Q81aQCciNCpTfDXiNK-8" value="&lt;font style=&quot;font-size: 24px;&quot;&gt;&lt;b&gt;ERP&lt;/b&gt;&lt;/font&gt;" style="text;html=1;align=center;verticalAlign=middle;whiteSpace=wrap;rounded=0;" parent="1" vertex="1">
          <mxGeometry x="60" y="523" width="60" height="30" as="geometry" />
        </mxCell>
        <mxCell id="24Q81aQCciNCpTfDXiNK-9" value="" style="rounded=0;whiteSpace=wrap;html=1;dashed=1;fillColor=none;strokeColor=#D79B00;gradientColor=#ffa500;" parent="1" vertex="1">
          <mxGeometry x="230" y="200" width="190" height="370" as="geometry" />
        </mxCell>
        <mxCell id="24Q81aQCciNCpTfDXiNK-10" value="&lt;font style=&quot;font-size: 16px;&quot;&gt;BRONZE LAYER&lt;/font&gt;" style="rounded=1;whiteSpace=wrap;html=1;fillColor=#ffcd28;dashed=1;fontSize=24;strokeColor=#d79b00;gradientColor=#ffa500;" parent="1" vertex="1">
          <mxGeometry x="230" y="140" width="190" height="50" as="geometry" />
        </mxCell>
        <mxCell id="SzAG1CnnxhR4tHEEF76X-9" style="edgeStyle=orthogonalEdgeStyle;rounded=0;orthogonalLoop=1;jettySize=auto;html=1;entryX=0;entryY=0.5;entryDx=0;entryDy=0;" parent="1" source="24Q81aQCciNCpTfDXiNK-13" target="SzAG1CnnxhR4tHEEF76X-3" edge="1">
          <mxGeometry relative="1" as="geometry" />
        </mxCell>
        <mxCell id="24Q81aQCciNCpTfDXiNK-13" value="&lt;span style=&quot;font-size: 16px;&quot;&gt;crm_sales_details&lt;/span&gt;" style="rounded=1;whiteSpace=wrap;html=1;fillColor=#ffcd28;dashed=1;fontSize=24;strokeColor=#d79b00;gradientColor=#ffa500;" parent="1" vertex="1">
          <mxGeometry x="242.5" y="220" width="165" height="30" as="geometry" />
        </mxCell>
        <mxCell id="24Q81aQCciNCpTfDXiNK-20" style="edgeStyle=orthogonalEdgeStyle;rounded=0;orthogonalLoop=1;jettySize=auto;html=1;entryX=0;entryY=0.5;entryDx=0;entryDy=0;" parent="1" source="24Q81aQCciNCpTfDXiNK-5" target="24Q81aQCciNCpTfDXiNK-13" edge="1">
          <mxGeometry relative="1" as="geometry" />
        </mxCell>
        <mxCell id="SzAG1CnnxhR4tHEEF76X-10" style="edgeStyle=orthogonalEdgeStyle;rounded=0;orthogonalLoop=1;jettySize=auto;html=1;entryX=0;entryY=0.5;entryDx=0;entryDy=0;" parent="1" source="24Q81aQCciNCpTfDXiNK-26" target="SzAG1CnnxhR4tHEEF76X-4" edge="1">
          <mxGeometry relative="1" as="geometry" />
        </mxCell>
        <mxCell id="24Q81aQCciNCpTfDXiNK-26" value="&lt;font style=&quot;font-size: 16px;&quot;&gt;crm_cust_info&lt;/font&gt;" style="rounded=1;whiteSpace=wrap;html=1;fillColor=#ffcd28;dashed=1;fontSize=24;strokeColor=#d79b00;gradientColor=#ffa500;" parent="1" vertex="1">
          <mxGeometry x="242.5" y="270" width="165" height="30" as="geometry" />
        </mxCell>
        <mxCell id="SzAG1CnnxhR4tHEEF76X-11" style="edgeStyle=orthogonalEdgeStyle;rounded=0;orthogonalLoop=1;jettySize=auto;html=1;" parent="1" source="24Q81aQCciNCpTfDXiNK-27" target="SzAG1CnnxhR4tHEEF76X-5" edge="1">
          <mxGeometry relative="1" as="geometry" />
        </mxCell>
        <mxCell id="24Q81aQCciNCpTfDXiNK-27" value="&lt;font style=&quot;font-size: 16px;&quot;&gt;crm_prd_info&lt;/font&gt;" style="rounded=1;whiteSpace=wrap;html=1;fillColor=#ffcd28;dashed=1;fontSize=24;strokeColor=#d79b00;gradientColor=#ffa500;" parent="1" vertex="1">
          <mxGeometry x="242.5" y="320" width="165" height="30" as="geometry" />
        </mxCell>
        <mxCell id="SzAG1CnnxhR4tHEEF76X-12" style="edgeStyle=orthogonalEdgeStyle;rounded=0;orthogonalLoop=1;jettySize=auto;html=1;entryX=0;entryY=0.5;entryDx=0;entryDy=0;" parent="1" source="24Q81aQCciNCpTfDXiNK-30" target="SzAG1CnnxhR4tHEEF76X-6" edge="1">
          <mxGeometry relative="1" as="geometry" />
        </mxCell>
        <mxCell id="24Q81aQCciNCpTfDXiNK-30" value="&lt;font style=&quot;font-size: 16px;&quot;&gt;erp_cust_az12&lt;/font&gt;" style="rounded=1;whiteSpace=wrap;html=1;fillColor=#ffcd28;dashed=1;fontSize=24;strokeColor=#d79b00;gradientColor=#ffa500;" parent="1" vertex="1">
          <mxGeometry x="242.5" y="420" width="165" height="30" as="geometry" />
        </mxCell>
        <mxCell id="SzAG1CnnxhR4tHEEF76X-13" style="edgeStyle=orthogonalEdgeStyle;rounded=0;orthogonalLoop=1;jettySize=auto;html=1;entryX=0;entryY=0.5;entryDx=0;entryDy=0;" parent="1" source="24Q81aQCciNCpTfDXiNK-32" target="SzAG1CnnxhR4tHEEF76X-7" edge="1">
          <mxGeometry relative="1" as="geometry" />
        </mxCell>
        <mxCell id="24Q81aQCciNCpTfDXiNK-32" value="&lt;font style=&quot;font-size: 16px;&quot;&gt;erp_loc_a101&lt;/font&gt;" style="rounded=1;whiteSpace=wrap;html=1;fillColor=#ffcd28;dashed=1;fontSize=24;strokeColor=#d79b00;gradientColor=#ffa500;" parent="1" vertex="1">
          <mxGeometry x="240" y="480" width="165" height="30" as="geometry" />
        </mxCell>
        <mxCell id="SzAG1CnnxhR4tHEEF76X-14" style="edgeStyle=orthogonalEdgeStyle;rounded=0;orthogonalLoop=1;jettySize=auto;html=1;entryX=0;entryY=0.5;entryDx=0;entryDy=0;" parent="1" source="24Q81aQCciNCpTfDXiNK-33" target="SzAG1CnnxhR4tHEEF76X-8" edge="1">
          <mxGeometry relative="1" as="geometry" />
        </mxCell>
        <mxCell id="24Q81aQCciNCpTfDXiNK-33" value="&lt;font style=&quot;font-size: 16px;&quot;&gt;erp_px_cat_g1v2&lt;/font&gt;" style="rounded=1;whiteSpace=wrap;html=1;fillColor=#ffcd28;dashed=1;fontSize=24;strokeColor=#d79b00;gradientColor=#ffa500;" parent="1" vertex="1">
          <mxGeometry x="242.5" y="526" width="165" height="30" as="geometry" />
        </mxCell>
        <mxCell id="24Q81aQCciNCpTfDXiNK-36" value="&lt;font style=&quot;font-size: 24px;&quot;&gt;Integration Model&lt;/font&gt;" style="text;html=1;align=center;verticalAlign=middle;whiteSpace=wrap;rounded=0;" parent="1" vertex="1">
          <mxGeometry x="10" y="630" width="220" height="30" as="geometry" />
        </mxCell>
        <mxCell id="24Q81aQCciNCpTfDXiNK-38" value="crm_cust_info" style="swimlane;fontStyle=0;childLayout=stackLayout;horizontal=1;startSize=30;horizontalStack=0;resizeParent=1;resizeParentMax=0;resizeLast=0;collapsible=1;marginBottom=0;whiteSpace=wrap;html=1;fillColor=#dae8fc;gradientColor=#7ea6e0;strokeColor=#6c8ebf;fontSize=20;rounded=1;" parent="1" vertex="1">
          <mxGeometry x="340" y="955" width="220" height="110" as="geometry" />
        </mxCell>
        <mxCell id="24Q81aQCciNCpTfDXiNK-39" value="cst_id" style="text;strokeColor=none;fillColor=none;align=left;verticalAlign=middle;spacingLeft=4;spacingRight=4;overflow=hidden;points=[[0,0.5],[1,0.5]];portConstraint=eastwest;rotatable=0;whiteSpace=wrap;html=1;fontSize=20;rounded=1;" parent="24Q81aQCciNCpTfDXiNK-38" vertex="1">
          <mxGeometry y="30" width="220" height="40" as="geometry" />
        </mxCell>
        <mxCell id="24Q81aQCciNCpTfDXiNK-56" value="cst_key" style="text;strokeColor=none;fillColor=none;align=left;verticalAlign=middle;spacingLeft=4;spacingRight=4;overflow=hidden;points=[[0,0.5],[1,0.5]];portConstraint=eastwest;rotatable=0;whiteSpace=wrap;html=1;fontSize=20;rounded=1;" parent="24Q81aQCciNCpTfDXiNK-38" vertex="1">
          <mxGeometry y="70" width="220" height="40" as="geometry" />
        </mxCell>
        <mxCell id="24Q81aQCciNCpTfDXiNK-42" value="Customer Information" style="text;html=1;align=center;verticalAlign=middle;whiteSpace=wrap;rounded=0;fontSize=16;" parent="1" vertex="1">
          <mxGeometry x="362.5" y="925" width="175" height="30" as="geometry" />
        </mxCell>
        <mxCell id="24Q81aQCciNCpTfDXiNK-43" value="crm_prd_info" style="swimlane;fontStyle=0;childLayout=stackLayout;horizontal=1;startSize=30;horizontalStack=0;resizeParent=1;resizeParentMax=0;resizeLast=0;collapsible=1;marginBottom=0;whiteSpace=wrap;html=1;fillColor=#dae8fc;gradientColor=#7ea6e0;strokeColor=#6c8ebf;fontSize=20;rounded=1;" parent="1" vertex="1">
          <mxGeometry x="347" y="840" width="220" height="70" as="geometry" />
        </mxCell>
        <mxCell id="24Q81aQCciNCpTfDXiNK-44" value="prd_key" style="text;strokeColor=none;fillColor=none;align=left;verticalAlign=middle;spacingLeft=4;spacingRight=4;overflow=hidden;points=[[0,0.5],[1,0.5]];portConstraint=eastwest;rotatable=0;whiteSpace=wrap;html=1;fontSize=20;rounded=1;" parent="24Q81aQCciNCpTfDXiNK-43" vertex="1">
          <mxGeometry y="30" width="220" height="40" as="geometry" />
        </mxCell>
        <mxCell id="24Q81aQCciNCpTfDXiNK-45" value="Product Information" style="text;html=1;align=center;verticalAlign=middle;whiteSpace=wrap;rounded=0;fontSize=16;" parent="1" vertex="1">
          <mxGeometry x="369.5" y="810" width="175" height="30" as="geometry" />
        </mxCell>
        <mxCell id="24Q81aQCciNCpTfDXiNK-46" value="crm_sales_details" style="swimlane;fontStyle=0;childLayout=stackLayout;horizontal=1;startSize=30;horizontalStack=0;resizeParent=1;resizeParentMax=0;resizeLast=0;collapsible=1;marginBottom=0;whiteSpace=wrap;html=1;fillColor=#dae8fc;gradientColor=#7ea6e0;strokeColor=#6c8ebf;fontSize=20;rounded=1;" parent="1" vertex="1">
          <mxGeometry x="30" y="880" width="220" height="110" as="geometry" />
        </mxCell>
        <mxCell id="24Q81aQCciNCpTfDXiNK-47" value="sls_prd_key" style="text;strokeColor=none;fillColor=none;align=left;verticalAlign=middle;spacingLeft=4;spacingRight=4;overflow=hidden;points=[[0,0.5],[1,0.5]];portConstraint=eastwest;rotatable=0;whiteSpace=wrap;html=1;fontSize=20;rounded=1;" parent="24Q81aQCciNCpTfDXiNK-46" vertex="1">
          <mxGeometry y="30" width="220" height="40" as="geometry" />
        </mxCell>
        <mxCell id="24Q81aQCciNCpTfDXiNK-50" value="sls_cust_key" style="text;strokeColor=none;fillColor=none;align=left;verticalAlign=middle;spacingLeft=4;spacingRight=4;overflow=hidden;points=[[0,0.5],[1,0.5]];portConstraint=eastwest;rotatable=0;whiteSpace=wrap;html=1;fontSize=20;rounded=1;" parent="24Q81aQCciNCpTfDXiNK-46" vertex="1">
          <mxGeometry y="70" width="220" height="40" as="geometry" />
        </mxCell>
        <mxCell id="24Q81aQCciNCpTfDXiNK-48" value="Customer Sales Details" style="text;html=1;align=center;verticalAlign=middle;whiteSpace=wrap;rounded=0;fontSize=16;" parent="1" vertex="1">
          <mxGeometry x="52.5" y="850" width="175" height="30" as="geometry" />
        </mxCell>
        <mxCell id="24Q81aQCciNCpTfDXiNK-49" style="edgeStyle=orthogonalEdgeStyle;rounded=0;orthogonalLoop=1;jettySize=auto;html=1;" parent="1" source="24Q81aQCciNCpTfDXiNK-44" target="24Q81aQCciNCpTfDXiNK-47" edge="1">
          <mxGeometry relative="1" as="geometry" />
        </mxCell>
        <mxCell id="24Q81aQCciNCpTfDXiNK-52" style="edgeStyle=orthogonalEdgeStyle;rounded=0;orthogonalLoop=1;jettySize=auto;html=1;entryX=1;entryY=0.5;entryDx=0;entryDy=0;" parent="1" source="24Q81aQCciNCpTfDXiNK-39" target="24Q81aQCciNCpTfDXiNK-50" edge="1">
          <mxGeometry relative="1" as="geometry" />
        </mxCell>
        <mxCell id="24Q81aQCciNCpTfDXiNK-53" value="erp_cust_az12" style="swimlane;fontStyle=0;childLayout=stackLayout;horizontal=1;startSize=30;horizontalStack=0;resizeParent=1;resizeParentMax=0;resizeLast=0;collapsible=1;marginBottom=0;whiteSpace=wrap;html=1;fillColor=#f5f5f5;gradientColor=#b3b3b3;strokeColor=#666666;fontSize=20;rounded=1;" parent="1" vertex="1">
          <mxGeometry x="725.62" y="1065" width="220" height="70" as="geometry" />
        </mxCell>
        <mxCell id="24Q81aQCciNCpTfDXiNK-54" value="cid" style="text;strokeColor=none;fillColor=none;align=left;verticalAlign=middle;spacingLeft=4;spacingRight=4;overflow=hidden;points=[[0,0.5],[1,0.5]];portConstraint=eastwest;rotatable=0;whiteSpace=wrap;html=1;fontSize=20;rounded=1;" parent="24Q81aQCciNCpTfDXiNK-53" vertex="1">
          <mxGeometry y="30" width="220" height="40" as="geometry" />
        </mxCell>
        <mxCell id="24Q81aQCciNCpTfDXiNK-55" value="Extra Customer Information (Birthdate)" style="text;html=1;align=center;verticalAlign=middle;whiteSpace=wrap;rounded=0;fontSize=16;" parent="1" vertex="1">
          <mxGeometry x="700" y="1035" width="283.75" height="30" as="geometry" />
        </mxCell>
        <mxCell id="24Q81aQCciNCpTfDXiNK-58" style="edgeStyle=orthogonalEdgeStyle;rounded=0;orthogonalLoop=1;jettySize=auto;html=1;entryX=1;entryY=0.5;entryDx=0;entryDy=0;" parent="1" source="24Q81aQCciNCpTfDXiNK-54" target="24Q81aQCciNCpTfDXiNK-56" edge="1">
          <mxGeometry relative="1" as="geometry" />
        </mxCell>
        <mxCell id="24Q81aQCciNCpTfDXiNK-59" value="erp_loc_a101" style="swimlane;fontStyle=0;childLayout=stackLayout;horizontal=1;startSize=30;horizontalStack=0;resizeParent=1;resizeParentMax=0;resizeLast=0;collapsible=1;marginBottom=0;whiteSpace=wrap;html=1;fillColor=#f5f5f5;gradientColor=#b3b3b3;strokeColor=#666666;fontSize=20;rounded=1;" parent="1" vertex="1">
          <mxGeometry x="725.62" y="915" width="220" height="70" as="geometry" />
        </mxCell>
        <mxCell id="24Q81aQCciNCpTfDXiNK-60" value="cid" style="text;strokeColor=none;fillColor=none;align=left;verticalAlign=middle;spacingLeft=4;spacingRight=4;overflow=hidden;points=[[0,0.5],[1,0.5]];portConstraint=eastwest;rotatable=0;whiteSpace=wrap;html=1;fontSize=20;rounded=1;" parent="24Q81aQCciNCpTfDXiNK-59" vertex="1">
          <mxGeometry y="30" width="220" height="40" as="geometry" />
        </mxCell>
        <mxCell id="24Q81aQCciNCpTfDXiNK-61" value="Location of the Customers (Country)" style="text;html=1;align=center;verticalAlign=middle;whiteSpace=wrap;rounded=0;fontSize=16;" parent="1" vertex="1">
          <mxGeometry x="710" y="885" width="263.75" height="30" as="geometry" />
        </mxCell>
        <mxCell id="24Q81aQCciNCpTfDXiNK-62" style="edgeStyle=orthogonalEdgeStyle;rounded=0;orthogonalLoop=1;jettySize=auto;html=1;entryX=1;entryY=0.5;entryDx=0;entryDy=0;" parent="1" source="24Q81aQCciNCpTfDXiNK-60" target="24Q81aQCciNCpTfDXiNK-56" edge="1">
          <mxGeometry relative="1" as="geometry" />
        </mxCell>
        <mxCell id="24Q81aQCciNCpTfDXiNK-66" value="erp_px_cat_g1v2" style="swimlane;fontStyle=0;childLayout=stackLayout;horizontal=1;startSize=30;horizontalStack=0;resizeParent=1;resizeParentMax=0;resizeLast=0;collapsible=1;marginBottom=0;whiteSpace=wrap;html=1;fillColor=#f5f5f5;gradientColor=#b3b3b3;strokeColor=#666666;fontSize=20;rounded=1;" parent="1" vertex="1">
          <mxGeometry x="725.62" y="760" width="220" height="70" as="geometry" />
        </mxCell>
        <mxCell id="24Q81aQCciNCpTfDXiNK-67" value="id" style="text;strokeColor=none;fillColor=none;align=left;verticalAlign=middle;spacingLeft=4;spacingRight=4;overflow=hidden;points=[[0,0.5],[1,0.5]];portConstraint=eastwest;rotatable=0;whiteSpace=wrap;html=1;fontSize=20;rounded=1;" parent="24Q81aQCciNCpTfDXiNK-66" vertex="1">
          <mxGeometry y="30" width="220" height="40" as="geometry" />
        </mxCell>
        <mxCell id="24Q81aQCciNCpTfDXiNK-68" value="Product Categories" style="text;html=1;align=center;verticalAlign=middle;whiteSpace=wrap;rounded=0;fontSize=16;" parent="1" vertex="1">
          <mxGeometry x="731.87" y="730" width="207.5" height="30" as="geometry" />
        </mxCell>
        <mxCell id="24Q81aQCciNCpTfDXiNK-69" style="edgeStyle=orthogonalEdgeStyle;rounded=0;orthogonalLoop=1;jettySize=auto;html=1;entryX=1;entryY=0.5;entryDx=0;entryDy=0;" parent="1" source="24Q81aQCciNCpTfDXiNK-67" target="24Q81aQCciNCpTfDXiNK-44" edge="1">
          <mxGeometry relative="1" as="geometry" />
        </mxCell>
        <mxCell id="24Q81aQCciNCpTfDXiNK-70" value="" style="rounded=1;whiteSpace=wrap;html=1;fillColor=none;dashed=1;" parent="1" vertex="1">
          <mxGeometry y="722.5" width="590" height="455" as="geometry" />
        </mxCell>
        <mxCell id="24Q81aQCciNCpTfDXiNK-71" value="CRM" style="rounded=1;whiteSpace=wrap;html=1;fontSize=35;fontStyle=1;fillColor=#dae8fc;gradientColor=#7ea6e0;strokeColor=#6c8ebf;" parent="1" vertex="1">
          <mxGeometry x="200" y="690" width="153" height="50" as="geometry" />
        </mxCell>
        <mxCell id="24Q81aQCciNCpTfDXiNK-72" value="ERP" style="rounded=1;whiteSpace=wrap;html=1;fontSize=35;fontStyle=1;fillColor=#f5f5f5;gradientColor=#b3b3b3;strokeColor=#666666;" parent="1" vertex="1">
          <mxGeometry x="760.62" y="680" width="150" height="50" as="geometry" />
        </mxCell>
        <mxCell id="24Q81aQCciNCpTfDXiNK-73" value="" style="rounded=1;whiteSpace=wrap;html=1;fillColor=none;dashed=1;" parent="1" vertex="1">
          <mxGeometry x="630.62" y="722.5" width="410" height="455" as="geometry" />
        </mxCell>
        <mxCell id="SzAG1CnnxhR4tHEEF76X-1" value="" style="rounded=0;whiteSpace=wrap;html=1;dashed=1;fillColor=none;" parent="1" vertex="1">
          <mxGeometry x="490" y="200" width="190" height="370" as="geometry" />
        </mxCell>
        <mxCell id="SzAG1CnnxhR4tHEEF76X-2" value="&lt;font style=&quot;font-size: 16px;&quot;&gt;BRONZE LAYER&lt;/font&gt;" style="rounded=1;whiteSpace=wrap;html=1;fillColor=#bac8d3;dashed=1;fontSize=24;strokeColor=#23445d;" parent="1" vertex="1">
          <mxGeometry x="490" y="140" width="190" height="50" as="geometry" />
        </mxCell>
        <mxCell id="SzAG1CnnxhR4tHEEF76X-3" value="&lt;span style=&quot;font-size: 16px;&quot;&gt;crm_sales_details&lt;/span&gt;" style="rounded=1;whiteSpace=wrap;html=1;fillColor=#bac8d3;dashed=1;fontSize=24;strokeColor=#23445d;" parent="1" vertex="1">
          <mxGeometry x="502.5" y="220" width="165" height="30" as="geometry" />
        </mxCell>
        <mxCell id="SzAG1CnnxhR4tHEEF76X-4" value="&lt;font style=&quot;font-size: 16px;&quot;&gt;crm_cust_info&lt;/font&gt;" style="rounded=1;whiteSpace=wrap;html=1;fillColor=#bac8d3;dashed=1;fontSize=24;strokeColor=#23445d;" parent="1" vertex="1">
          <mxGeometry x="502.5" y="270" width="165" height="30" as="geometry" />
        </mxCell>
        <mxCell id="SzAG1CnnxhR4tHEEF76X-5" value="&lt;font style=&quot;font-size: 16px;&quot;&gt;crm_prd_info&lt;/font&gt;" style="rounded=1;whiteSpace=wrap;html=1;fillColor=#bac8d3;dashed=1;fontSize=24;strokeColor=#23445d;" parent="1" vertex="1">
          <mxGeometry x="502.5" y="320" width="165" height="30" as="geometry" />
        </mxCell>
        <mxCell id="SzAG1CnnxhR4tHEEF76X-6" value="&lt;font style=&quot;font-size: 16px;&quot;&gt;erp_cust_az12&lt;/font&gt;" style="rounded=1;whiteSpace=wrap;html=1;fillColor=#bac8d3;dashed=1;fontSize=24;strokeColor=#23445d;" parent="1" vertex="1">
          <mxGeometry x="502.5" y="420" width="165" height="30" as="geometry" />
        </mxCell>
        <mxCell id="SzAG1CnnxhR4tHEEF76X-7" value="&lt;font style=&quot;font-size: 16px;&quot;&gt;erp_loc_a101&lt;/font&gt;" style="rounded=1;whiteSpace=wrap;html=1;fillColor=#bac8d3;dashed=1;fontSize=24;strokeColor=#23445d;" parent="1" vertex="1">
          <mxGeometry x="500" y="480" width="165" height="30" as="geometry" />
        </mxCell>
        <mxCell id="SzAG1CnnxhR4tHEEF76X-8" value="&lt;font style=&quot;font-size: 16px;&quot;&gt;erp_px_cat_g1v2&lt;/font&gt;" style="rounded=1;whiteSpace=wrap;html=1;fillColor=#bac8d3;dashed=1;fontSize=24;strokeColor=#23445d;" parent="1" vertex="1">
          <mxGeometry x="502.5" y="526" width="165" height="30" as="geometry" />
        </mxCell>
        <mxCell id="SzAG1CnnxhR4tHEEF76X-15" value="Product" style="text;html=1;strokeColor=#b85450;fillColor=#f8cecc;align=center;verticalAlign=middle;whiteSpace=wrap;overflow=hidden;fontSize=20;rounded=1;gradientColor=#ea6b66;" parent="1" vertex="1">
          <mxGeometry x="347" y="900" width="222.5" height="30" as="geometry" />
        </mxCell>
        <mxCell id="SzAG1CnnxhR4tHEEF76X-16" value="Product" style="text;html=1;strokeColor=#b85450;fillColor=#f8cecc;align=center;verticalAlign=middle;whiteSpace=wrap;overflow=hidden;fontSize=20;rounded=1;gradientColor=#ea6b66;" parent="1" vertex="1">
          <mxGeometry x="725.62" y="820" width="222.5" height="30" as="geometry" />
        </mxCell>
        <mxCell id="SzAG1CnnxhR4tHEEF76X-18" value="Customers" style="text;html=1;strokeColor=#82b366;fillColor=#d5e8d4;align=center;verticalAlign=middle;whiteSpace=wrap;overflow=hidden;fontSize=20;rounded=1;gradientColor=#97d077;" parent="1" vertex="1">
          <mxGeometry x="340" y="1060" width="222.5" height="30" as="geometry" />
        </mxCell>
        <mxCell id="SzAG1CnnxhR4tHEEF76X-19" value="Customers" style="text;html=1;strokeColor=#82b366;fillColor=#d5e8d4;align=center;verticalAlign=middle;whiteSpace=wrap;overflow=hidden;fontSize=20;rounded=1;gradientColor=#97d077;" parent="1" vertex="1">
          <mxGeometry x="724.37" y="980" width="222.5" height="30" as="geometry" />
        </mxCell>
        <mxCell id="SzAG1CnnxhR4tHEEF76X-20" value="Customers" style="text;html=1;strokeColor=#82b366;fillColor=#d5e8d4;align=center;verticalAlign=middle;whiteSpace=wrap;overflow=hidden;fontSize=20;rounded=1;gradientColor=#97d077;" parent="1" vertex="1">
          <mxGeometry x="724.37" y="1130" width="222.5" height="30" as="geometry" />
        </mxCell>
        <mxCell id="SzAG1CnnxhR4tHEEF76X-21" value="Sales" style="text;html=1;strokeColor=#996185;fillColor=#e6d0de;align=center;verticalAlign=middle;whiteSpace=wrap;overflow=hidden;fontSize=20;rounded=1;gradientColor=#d5739d;" parent="1" vertex="1">
          <mxGeometry x="28.75" y="985" width="222.5" height="30" as="geometry" />
        </mxCell>
        <mxCell id="tBmuuQblktAwGQAZ4ZNW-2" value="&lt;font style=&quot;font-size: 24px;&quot;&gt;Data Marts (Star Schema)&lt;/font&gt;" style="text;html=1;align=center;verticalAlign=middle;whiteSpace=wrap;rounded=0;" vertex="1" parent="1">
          <mxGeometry y="1260" width="310" height="30" as="geometry" />
        </mxCell>
        <mxCell id="tBmuuQblktAwGQAZ4ZNW-4" value="gold.dim_customers" style="shape=table;startSize=30;container=1;collapsible=0;childLayout=tableLayout;fixedRows=1;rowLines=0;fontStyle=0;strokeColor=#d6b656;fontSize=16;fillColor=light-dark(#FFF2CC,#FFFF33);gradientColor=none;fontColor=light-dark(#000000,#000000);" vertex="1" parent="1">
          <mxGeometry x="-70" y="1300" width="210" height="330" as="geometry" />
        </mxCell>
        <mxCell id="tBmuuQblktAwGQAZ4ZNW-5" value="" style="shape=tableRow;horizontal=0;startSize=0;swimlaneHead=0;swimlaneBody=0;top=0;left=0;bottom=0;right=0;collapsible=0;dropTarget=0;fillColor=none;points=[[0,0.5],[1,0.5]];portConstraint=eastwest;strokeColor=inherit;fontSize=16;" vertex="1" parent="tBmuuQblktAwGQAZ4ZNW-4">
          <mxGeometry y="30" width="210" height="30" as="geometry" />
        </mxCell>
        <mxCell id="tBmuuQblktAwGQAZ4ZNW-6" value="PK" style="shape=partialRectangle;html=1;whiteSpace=wrap;connectable=0;fillColor=none;top=0;left=0;bottom=0;right=0;overflow=hidden;pointerEvents=1;strokeColor=inherit;fontSize=16;" vertex="1" parent="tBmuuQblktAwGQAZ4ZNW-5">
          <mxGeometry width="47" height="30" as="geometry">
            <mxRectangle width="47" height="30" as="alternateBounds" />
          </mxGeometry>
        </mxCell>
        <mxCell id="tBmuuQblktAwGQAZ4ZNW-7" value="customer_key" style="shape=partialRectangle;html=1;whiteSpace=wrap;connectable=0;fillColor=none;top=0;left=0;bottom=0;right=0;align=left;spacingLeft=6;overflow=hidden;strokeColor=inherit;fontSize=16;" vertex="1" parent="tBmuuQblktAwGQAZ4ZNW-5">
          <mxGeometry x="47" width="163" height="30" as="geometry">
            <mxRectangle width="163" height="30" as="alternateBounds" />
          </mxGeometry>
        </mxCell>
        <mxCell id="tBmuuQblktAwGQAZ4ZNW-8" value="" style="shape=tableRow;horizontal=0;startSize=0;swimlaneHead=0;swimlaneBody=0;top=0;left=0;bottom=0;right=0;collapsible=0;dropTarget=0;fillColor=none;points=[[0,0.5],[1,0.5]];portConstraint=eastwest;strokeColor=inherit;fontSize=16;" vertex="1" parent="tBmuuQblktAwGQAZ4ZNW-4">
          <mxGeometry y="60" width="210" height="30" as="geometry" />
        </mxCell>
        <mxCell id="tBmuuQblktAwGQAZ4ZNW-9" value="" style="shape=partialRectangle;html=1;whiteSpace=wrap;connectable=0;fillColor=none;top=0;left=0;bottom=0;right=0;overflow=hidden;strokeColor=inherit;fontSize=16;" vertex="1" parent="tBmuuQblktAwGQAZ4ZNW-8">
          <mxGeometry width="47" height="30" as="geometry">
            <mxRectangle width="47" height="30" as="alternateBounds" />
          </mxGeometry>
        </mxCell>
        <mxCell id="tBmuuQblktAwGQAZ4ZNW-10" value="customer_id" style="shape=partialRectangle;html=1;whiteSpace=wrap;connectable=0;fillColor=none;top=0;left=0;bottom=0;right=0;align=left;spacingLeft=6;overflow=hidden;strokeColor=inherit;fontSize=16;" vertex="1" parent="tBmuuQblktAwGQAZ4ZNW-8">
          <mxGeometry x="47" width="163" height="30" as="geometry">
            <mxRectangle width="163" height="30" as="alternateBounds" />
          </mxGeometry>
        </mxCell>
        <mxCell id="tBmuuQblktAwGQAZ4ZNW-11" value="" style="shape=tableRow;horizontal=0;startSize=0;swimlaneHead=0;swimlaneBody=0;top=0;left=0;bottom=0;right=0;collapsible=0;dropTarget=0;fillColor=none;points=[[0,0.5],[1,0.5]];portConstraint=eastwest;strokeColor=inherit;fontSize=16;" vertex="1" parent="tBmuuQblktAwGQAZ4ZNW-4">
          <mxGeometry y="90" width="210" height="30" as="geometry" />
        </mxCell>
        <mxCell id="tBmuuQblktAwGQAZ4ZNW-12" value="" style="shape=partialRectangle;html=1;whiteSpace=wrap;connectable=0;fillColor=none;top=0;left=0;bottom=0;right=0;overflow=hidden;strokeColor=inherit;fontSize=16;" vertex="1" parent="tBmuuQblktAwGQAZ4ZNW-11">
          <mxGeometry width="47" height="30" as="geometry">
            <mxRectangle width="47" height="30" as="alternateBounds" />
          </mxGeometry>
        </mxCell>
        <mxCell id="tBmuuQblktAwGQAZ4ZNW-13" value="customer_number" style="shape=partialRectangle;html=1;whiteSpace=wrap;connectable=0;fillColor=none;top=0;left=0;bottom=0;right=0;align=left;spacingLeft=6;overflow=hidden;strokeColor=inherit;fontSize=16;" vertex="1" parent="tBmuuQblktAwGQAZ4ZNW-11">
          <mxGeometry x="47" width="163" height="30" as="geometry">
            <mxRectangle width="163" height="30" as="alternateBounds" />
          </mxGeometry>
        </mxCell>
        <mxCell id="tBmuuQblktAwGQAZ4ZNW-14" value="" style="shape=tableRow;horizontal=0;startSize=0;swimlaneHead=0;swimlaneBody=0;top=0;left=0;bottom=0;right=0;collapsible=0;dropTarget=0;fillColor=none;points=[[0,0.5],[1,0.5]];portConstraint=eastwest;strokeColor=inherit;fontSize=16;" vertex="1" parent="tBmuuQblktAwGQAZ4ZNW-4">
          <mxGeometry y="120" width="210" height="30" as="geometry" />
        </mxCell>
        <mxCell id="tBmuuQblktAwGQAZ4ZNW-15" value="" style="shape=partialRectangle;html=1;whiteSpace=wrap;connectable=0;fillColor=none;top=0;left=0;bottom=0;right=0;overflow=hidden;strokeColor=inherit;fontSize=16;" vertex="1" parent="tBmuuQblktAwGQAZ4ZNW-14">
          <mxGeometry width="47" height="30" as="geometry">
            <mxRectangle width="47" height="30" as="alternateBounds" />
          </mxGeometry>
        </mxCell>
        <mxCell id="tBmuuQblktAwGQAZ4ZNW-16" value="first_name" style="shape=partialRectangle;html=1;whiteSpace=wrap;connectable=0;fillColor=none;top=0;left=0;bottom=0;right=0;align=left;spacingLeft=6;overflow=hidden;strokeColor=inherit;fontSize=16;" vertex="1" parent="tBmuuQblktAwGQAZ4ZNW-14">
          <mxGeometry x="47" width="163" height="30" as="geometry">
            <mxRectangle width="163" height="30" as="alternateBounds" />
          </mxGeometry>
        </mxCell>
        <mxCell id="tBmuuQblktAwGQAZ4ZNW-17" value="" style="shape=tableRow;horizontal=0;startSize=0;swimlaneHead=0;swimlaneBody=0;top=0;left=0;bottom=0;right=0;collapsible=0;dropTarget=0;fillColor=none;points=[[0,0.5],[1,0.5]];portConstraint=eastwest;strokeColor=inherit;fontSize=16;" vertex="1" parent="tBmuuQblktAwGQAZ4ZNW-4">
          <mxGeometry y="150" width="210" height="30" as="geometry" />
        </mxCell>
        <mxCell id="tBmuuQblktAwGQAZ4ZNW-18" value="" style="shape=partialRectangle;html=1;whiteSpace=wrap;connectable=0;fillColor=none;top=0;left=0;bottom=0;right=0;overflow=hidden;strokeColor=inherit;fontSize=16;" vertex="1" parent="tBmuuQblktAwGQAZ4ZNW-17">
          <mxGeometry width="47" height="30" as="geometry">
            <mxRectangle width="47" height="30" as="alternateBounds" />
          </mxGeometry>
        </mxCell>
        <mxCell id="tBmuuQblktAwGQAZ4ZNW-19" value="last_name" style="shape=partialRectangle;html=1;whiteSpace=wrap;connectable=0;fillColor=none;top=0;left=0;bottom=0;right=0;align=left;spacingLeft=6;overflow=hidden;strokeColor=inherit;fontSize=16;" vertex="1" parent="tBmuuQblktAwGQAZ4ZNW-17">
          <mxGeometry x="47" width="163" height="30" as="geometry">
            <mxRectangle width="163" height="30" as="alternateBounds" />
          </mxGeometry>
        </mxCell>
        <mxCell id="tBmuuQblktAwGQAZ4ZNW-20" value="" style="shape=tableRow;horizontal=0;startSize=0;swimlaneHead=0;swimlaneBody=0;top=0;left=0;bottom=0;right=0;collapsible=0;dropTarget=0;fillColor=none;points=[[0,0.5],[1,0.5]];portConstraint=eastwest;strokeColor=inherit;fontSize=16;" vertex="1" parent="tBmuuQblktAwGQAZ4ZNW-4">
          <mxGeometry y="180" width="210" height="30" as="geometry" />
        </mxCell>
        <mxCell id="tBmuuQblktAwGQAZ4ZNW-21" value="" style="shape=partialRectangle;html=1;whiteSpace=wrap;connectable=0;fillColor=none;top=0;left=0;bottom=0;right=0;overflow=hidden;strokeColor=inherit;fontSize=16;" vertex="1" parent="tBmuuQblktAwGQAZ4ZNW-20">
          <mxGeometry width="47" height="30" as="geometry">
            <mxRectangle width="47" height="30" as="alternateBounds" />
          </mxGeometry>
        </mxCell>
        <mxCell id="tBmuuQblktAwGQAZ4ZNW-22" value="country" style="shape=partialRectangle;html=1;whiteSpace=wrap;connectable=0;fillColor=none;top=0;left=0;bottom=0;right=0;align=left;spacingLeft=6;overflow=hidden;strokeColor=inherit;fontSize=16;" vertex="1" parent="tBmuuQblktAwGQAZ4ZNW-20">
          <mxGeometry x="47" width="163" height="30" as="geometry">
            <mxRectangle width="163" height="30" as="alternateBounds" />
          </mxGeometry>
        </mxCell>
        <mxCell id="tBmuuQblktAwGQAZ4ZNW-23" value="" style="shape=tableRow;horizontal=0;startSize=0;swimlaneHead=0;swimlaneBody=0;top=0;left=0;bottom=0;right=0;collapsible=0;dropTarget=0;fillColor=none;points=[[0,0.5],[1,0.5]];portConstraint=eastwest;strokeColor=inherit;fontSize=16;" vertex="1" parent="tBmuuQblktAwGQAZ4ZNW-4">
          <mxGeometry y="210" width="210" height="30" as="geometry" />
        </mxCell>
        <mxCell id="tBmuuQblktAwGQAZ4ZNW-24" value="" style="shape=partialRectangle;html=1;whiteSpace=wrap;connectable=0;fillColor=none;top=0;left=0;bottom=0;right=0;overflow=hidden;strokeColor=inherit;fontSize=16;" vertex="1" parent="tBmuuQblktAwGQAZ4ZNW-23">
          <mxGeometry width="47" height="30" as="geometry">
            <mxRectangle width="47" height="30" as="alternateBounds" />
          </mxGeometry>
        </mxCell>
        <mxCell id="tBmuuQblktAwGQAZ4ZNW-25" value="martial_status" style="shape=partialRectangle;html=1;whiteSpace=wrap;connectable=0;fillColor=none;top=0;left=0;bottom=0;right=0;align=left;spacingLeft=6;overflow=hidden;strokeColor=inherit;fontSize=16;" vertex="1" parent="tBmuuQblktAwGQAZ4ZNW-23">
          <mxGeometry x="47" width="163" height="30" as="geometry">
            <mxRectangle width="163" height="30" as="alternateBounds" />
          </mxGeometry>
        </mxCell>
        <mxCell id="tBmuuQblktAwGQAZ4ZNW-26" value="" style="shape=tableRow;horizontal=0;startSize=0;swimlaneHead=0;swimlaneBody=0;top=0;left=0;bottom=0;right=0;collapsible=0;dropTarget=0;fillColor=none;points=[[0,0.5],[1,0.5]];portConstraint=eastwest;strokeColor=inherit;fontSize=16;" vertex="1" parent="tBmuuQblktAwGQAZ4ZNW-4">
          <mxGeometry y="240" width="210" height="30" as="geometry" />
        </mxCell>
        <mxCell id="tBmuuQblktAwGQAZ4ZNW-27" value="" style="shape=partialRectangle;html=1;whiteSpace=wrap;connectable=0;fillColor=none;top=0;left=0;bottom=0;right=0;overflow=hidden;strokeColor=inherit;fontSize=16;" vertex="1" parent="tBmuuQblktAwGQAZ4ZNW-26">
          <mxGeometry width="47" height="30" as="geometry">
            <mxRectangle width="47" height="30" as="alternateBounds" />
          </mxGeometry>
        </mxCell>
        <mxCell id="tBmuuQblktAwGQAZ4ZNW-28" value="gender" style="shape=partialRectangle;html=1;whiteSpace=wrap;connectable=0;fillColor=none;top=0;left=0;bottom=0;right=0;align=left;spacingLeft=6;overflow=hidden;strokeColor=inherit;fontSize=16;" vertex="1" parent="tBmuuQblktAwGQAZ4ZNW-26">
          <mxGeometry x="47" width="163" height="30" as="geometry">
            <mxRectangle width="163" height="30" as="alternateBounds" />
          </mxGeometry>
        </mxCell>
        <mxCell id="tBmuuQblktAwGQAZ4ZNW-29" value="" style="shape=tableRow;horizontal=0;startSize=0;swimlaneHead=0;swimlaneBody=0;top=0;left=0;bottom=0;right=0;collapsible=0;dropTarget=0;fillColor=none;points=[[0,0.5],[1,0.5]];portConstraint=eastwest;strokeColor=inherit;fontSize=16;" vertex="1" parent="tBmuuQblktAwGQAZ4ZNW-4">
          <mxGeometry y="270" width="210" height="30" as="geometry" />
        </mxCell>
        <mxCell id="tBmuuQblktAwGQAZ4ZNW-30" value="" style="shape=partialRectangle;html=1;whiteSpace=wrap;connectable=0;fillColor=none;top=0;left=0;bottom=0;right=0;overflow=hidden;strokeColor=inherit;fontSize=16;" vertex="1" parent="tBmuuQblktAwGQAZ4ZNW-29">
          <mxGeometry width="47" height="30" as="geometry">
            <mxRectangle width="47" height="30" as="alternateBounds" />
          </mxGeometry>
        </mxCell>
        <mxCell id="tBmuuQblktAwGQAZ4ZNW-31" value="birthdate" style="shape=partialRectangle;html=1;whiteSpace=wrap;connectable=0;fillColor=none;top=0;left=0;bottom=0;right=0;align=left;spacingLeft=6;overflow=hidden;strokeColor=inherit;fontSize=16;" vertex="1" parent="tBmuuQblktAwGQAZ4ZNW-29">
          <mxGeometry x="47" width="163" height="30" as="geometry">
            <mxRectangle width="163" height="30" as="alternateBounds" />
          </mxGeometry>
        </mxCell>
        <mxCell id="tBmuuQblktAwGQAZ4ZNW-32" value="" style="shape=tableRow;horizontal=0;startSize=0;swimlaneHead=0;swimlaneBody=0;top=0;left=0;bottom=0;right=0;collapsible=0;dropTarget=0;fillColor=none;points=[[0,0.5],[1,0.5]];portConstraint=eastwest;strokeColor=inherit;fontSize=16;" vertex="1" parent="tBmuuQblktAwGQAZ4ZNW-4">
          <mxGeometry y="300" width="210" height="30" as="geometry" />
        </mxCell>
        <mxCell id="tBmuuQblktAwGQAZ4ZNW-33" value="" style="shape=partialRectangle;html=1;whiteSpace=wrap;connectable=0;fillColor=none;top=0;left=0;bottom=0;right=0;overflow=hidden;strokeColor=inherit;fontSize=16;" vertex="1" parent="tBmuuQblktAwGQAZ4ZNW-32">
          <mxGeometry width="47" height="30" as="geometry">
            <mxRectangle width="47" height="30" as="alternateBounds" />
          </mxGeometry>
        </mxCell>
        <mxCell id="tBmuuQblktAwGQAZ4ZNW-34" value="create_date" style="shape=partialRectangle;html=1;whiteSpace=wrap;connectable=0;fillColor=none;top=0;left=0;bottom=0;right=0;align=left;spacingLeft=6;overflow=hidden;strokeColor=inherit;fontSize=16;" vertex="1" parent="tBmuuQblktAwGQAZ4ZNW-32">
          <mxGeometry x="47" width="163" height="30" as="geometry">
            <mxRectangle width="163" height="30" as="alternateBounds" />
          </mxGeometry>
        </mxCell>
        <mxCell id="tBmuuQblktAwGQAZ4ZNW-35" value="gold.dim_products" style="shape=table;startSize=30;container=1;collapsible=0;childLayout=tableLayout;fixedRows=1;rowLines=0;fontStyle=0;strokeColor=default;fontSize=16;fillColor=light-dark(#FFFFFF,#FFFF33);fontColor=light-dark(#000000,#000000);" vertex="1" parent="1">
          <mxGeometry x="827" y="1300" width="210" height="360" as="geometry" />
        </mxCell>
        <mxCell id="tBmuuQblktAwGQAZ4ZNW-36" value="" style="shape=tableRow;horizontal=0;startSize=0;swimlaneHead=0;swimlaneBody=0;top=0;left=0;bottom=0;right=0;collapsible=0;dropTarget=0;fillColor=none;points=[[0,0.5],[1,0.5]];portConstraint=eastwest;strokeColor=inherit;fontSize=16;fontColor=default;" vertex="1" parent="tBmuuQblktAwGQAZ4ZNW-35">
          <mxGeometry y="30" width="210" height="30" as="geometry" />
        </mxCell>
        <mxCell id="tBmuuQblktAwGQAZ4ZNW-37" value="PK" style="shape=partialRectangle;html=1;whiteSpace=wrap;connectable=0;fillColor=none;top=0;left=0;bottom=0;right=0;overflow=hidden;pointerEvents=1;strokeColor=inherit;fontSize=16;fontColor=default;" vertex="1" parent="tBmuuQblktAwGQAZ4ZNW-36">
          <mxGeometry width="47" height="30" as="geometry">
            <mxRectangle width="47" height="30" as="alternateBounds" />
          </mxGeometry>
        </mxCell>
        <mxCell id="tBmuuQblktAwGQAZ4ZNW-38" value="product_key" style="shape=partialRectangle;html=1;whiteSpace=wrap;connectable=0;fillColor=none;top=0;left=0;bottom=0;right=0;align=left;spacingLeft=6;overflow=hidden;strokeColor=inherit;fontSize=16;fontColor=default;" vertex="1" parent="tBmuuQblktAwGQAZ4ZNW-36">
          <mxGeometry x="47" width="163" height="30" as="geometry">
            <mxRectangle width="163" height="30" as="alternateBounds" />
          </mxGeometry>
        </mxCell>
        <mxCell id="tBmuuQblktAwGQAZ4ZNW-39" value="" style="shape=tableRow;horizontal=0;startSize=0;swimlaneHead=0;swimlaneBody=0;top=0;left=0;bottom=0;right=0;collapsible=0;dropTarget=0;fillColor=none;points=[[0,0.5],[1,0.5]];portConstraint=eastwest;strokeColor=inherit;fontSize=16;fontColor=default;" vertex="1" parent="tBmuuQblktAwGQAZ4ZNW-35">
          <mxGeometry y="60" width="210" height="30" as="geometry" />
        </mxCell>
        <mxCell id="tBmuuQblktAwGQAZ4ZNW-40" value="" style="shape=partialRectangle;html=1;whiteSpace=wrap;connectable=0;fillColor=none;top=0;left=0;bottom=0;right=0;overflow=hidden;strokeColor=inherit;fontSize=16;fontColor=default;" vertex="1" parent="tBmuuQblktAwGQAZ4ZNW-39">
          <mxGeometry width="47" height="30" as="geometry">
            <mxRectangle width="47" height="30" as="alternateBounds" />
          </mxGeometry>
        </mxCell>
        <mxCell id="tBmuuQblktAwGQAZ4ZNW-41" value="product_id" style="shape=partialRectangle;html=1;whiteSpace=wrap;connectable=0;fillColor=none;top=0;left=0;bottom=0;right=0;align=left;spacingLeft=6;overflow=hidden;strokeColor=inherit;fontSize=16;fontColor=default;" vertex="1" parent="tBmuuQblktAwGQAZ4ZNW-39">
          <mxGeometry x="47" width="163" height="30" as="geometry">
            <mxRectangle width="163" height="30" as="alternateBounds" />
          </mxGeometry>
        </mxCell>
        <mxCell id="tBmuuQblktAwGQAZ4ZNW-42" value="" style="shape=tableRow;horizontal=0;startSize=0;swimlaneHead=0;swimlaneBody=0;top=0;left=0;bottom=0;right=0;collapsible=0;dropTarget=0;fillColor=none;points=[[0,0.5],[1,0.5]];portConstraint=eastwest;strokeColor=inherit;fontSize=16;fontColor=default;" vertex="1" parent="tBmuuQblktAwGQAZ4ZNW-35">
          <mxGeometry y="90" width="210" height="30" as="geometry" />
        </mxCell>
        <mxCell id="tBmuuQblktAwGQAZ4ZNW-43" value="" style="shape=partialRectangle;html=1;whiteSpace=wrap;connectable=0;fillColor=none;top=0;left=0;bottom=0;right=0;overflow=hidden;strokeColor=inherit;fontSize=16;fontColor=default;" vertex="1" parent="tBmuuQblktAwGQAZ4ZNW-42">
          <mxGeometry width="47" height="30" as="geometry">
            <mxRectangle width="47" height="30" as="alternateBounds" />
          </mxGeometry>
        </mxCell>
        <mxCell id="tBmuuQblktAwGQAZ4ZNW-44" value="product_number" style="shape=partialRectangle;html=1;whiteSpace=wrap;connectable=0;fillColor=none;top=0;left=0;bottom=0;right=0;align=left;spacingLeft=6;overflow=hidden;strokeColor=inherit;fontSize=16;fontColor=default;" vertex="1" parent="tBmuuQblktAwGQAZ4ZNW-42">
          <mxGeometry x="47" width="163" height="30" as="geometry">
            <mxRectangle width="163" height="30" as="alternateBounds" />
          </mxGeometry>
        </mxCell>
        <mxCell id="tBmuuQblktAwGQAZ4ZNW-45" value="" style="shape=tableRow;horizontal=0;startSize=0;swimlaneHead=0;swimlaneBody=0;top=0;left=0;bottom=0;right=0;collapsible=0;dropTarget=0;fillColor=none;points=[[0,0.5],[1,0.5]];portConstraint=eastwest;strokeColor=inherit;fontSize=16;fontColor=default;" vertex="1" parent="tBmuuQblktAwGQAZ4ZNW-35">
          <mxGeometry y="120" width="210" height="30" as="geometry" />
        </mxCell>
        <mxCell id="tBmuuQblktAwGQAZ4ZNW-46" value="" style="shape=partialRectangle;html=1;whiteSpace=wrap;connectable=0;fillColor=none;top=0;left=0;bottom=0;right=0;overflow=hidden;strokeColor=inherit;fontSize=16;fontColor=default;" vertex="1" parent="tBmuuQblktAwGQAZ4ZNW-45">
          <mxGeometry width="47" height="30" as="geometry">
            <mxRectangle width="47" height="30" as="alternateBounds" />
          </mxGeometry>
        </mxCell>
        <mxCell id="tBmuuQblktAwGQAZ4ZNW-47" value="product_name" style="shape=partialRectangle;html=1;whiteSpace=wrap;connectable=0;fillColor=none;top=0;left=0;bottom=0;right=0;align=left;spacingLeft=6;overflow=hidden;strokeColor=inherit;fontSize=16;fontColor=default;" vertex="1" parent="tBmuuQblktAwGQAZ4ZNW-45">
          <mxGeometry x="47" width="163" height="30" as="geometry">
            <mxRectangle width="163" height="30" as="alternateBounds" />
          </mxGeometry>
        </mxCell>
        <mxCell id="tBmuuQblktAwGQAZ4ZNW-48" value="" style="shape=tableRow;horizontal=0;startSize=0;swimlaneHead=0;swimlaneBody=0;top=0;left=0;bottom=0;right=0;collapsible=0;dropTarget=0;fillColor=none;points=[[0,0.5],[1,0.5]];portConstraint=eastwest;strokeColor=inherit;fontSize=16;fontColor=default;" vertex="1" parent="tBmuuQblktAwGQAZ4ZNW-35">
          <mxGeometry y="150" width="210" height="30" as="geometry" />
        </mxCell>
        <mxCell id="tBmuuQblktAwGQAZ4ZNW-49" value="" style="shape=partialRectangle;html=1;whiteSpace=wrap;connectable=0;fillColor=none;top=0;left=0;bottom=0;right=0;overflow=hidden;strokeColor=inherit;fontSize=16;fontColor=default;" vertex="1" parent="tBmuuQblktAwGQAZ4ZNW-48">
          <mxGeometry width="47" height="30" as="geometry">
            <mxRectangle width="47" height="30" as="alternateBounds" />
          </mxGeometry>
        </mxCell>
        <mxCell id="tBmuuQblktAwGQAZ4ZNW-50" value="category_id" style="shape=partialRectangle;html=1;whiteSpace=wrap;connectable=0;fillColor=none;top=0;left=0;bottom=0;right=0;align=left;spacingLeft=6;overflow=hidden;strokeColor=inherit;fontSize=16;fontColor=default;" vertex="1" parent="tBmuuQblktAwGQAZ4ZNW-48">
          <mxGeometry x="47" width="163" height="30" as="geometry">
            <mxRectangle width="163" height="30" as="alternateBounds" />
          </mxGeometry>
        </mxCell>
        <mxCell id="tBmuuQblktAwGQAZ4ZNW-51" value="" style="shape=tableRow;horizontal=0;startSize=0;swimlaneHead=0;swimlaneBody=0;top=0;left=0;bottom=0;right=0;collapsible=0;dropTarget=0;fillColor=none;points=[[0,0.5],[1,0.5]];portConstraint=eastwest;strokeColor=inherit;fontSize=16;fontColor=default;" vertex="1" parent="tBmuuQblktAwGQAZ4ZNW-35">
          <mxGeometry y="180" width="210" height="30" as="geometry" />
        </mxCell>
        <mxCell id="tBmuuQblktAwGQAZ4ZNW-52" value="" style="shape=partialRectangle;html=1;whiteSpace=wrap;connectable=0;fillColor=none;top=0;left=0;bottom=0;right=0;overflow=hidden;strokeColor=inherit;fontSize=16;fontColor=default;" vertex="1" parent="tBmuuQblktAwGQAZ4ZNW-51">
          <mxGeometry width="47" height="30" as="geometry">
            <mxRectangle width="47" height="30" as="alternateBounds" />
          </mxGeometry>
        </mxCell>
        <mxCell id="tBmuuQblktAwGQAZ4ZNW-53" value="category" style="shape=partialRectangle;html=1;whiteSpace=wrap;connectable=0;fillColor=none;top=0;left=0;bottom=0;right=0;align=left;spacingLeft=6;overflow=hidden;strokeColor=inherit;fontSize=16;fontColor=default;" vertex="1" parent="tBmuuQblktAwGQAZ4ZNW-51">
          <mxGeometry x="47" width="163" height="30" as="geometry">
            <mxRectangle width="163" height="30" as="alternateBounds" />
          </mxGeometry>
        </mxCell>
        <mxCell id="tBmuuQblktAwGQAZ4ZNW-54" value="" style="shape=tableRow;horizontal=0;startSize=0;swimlaneHead=0;swimlaneBody=0;top=0;left=0;bottom=0;right=0;collapsible=0;dropTarget=0;fillColor=none;points=[[0,0.5],[1,0.5]];portConstraint=eastwest;strokeColor=inherit;fontSize=16;fontColor=default;" vertex="1" parent="tBmuuQblktAwGQAZ4ZNW-35">
          <mxGeometry y="210" width="210" height="30" as="geometry" />
        </mxCell>
        <mxCell id="tBmuuQblktAwGQAZ4ZNW-55" value="" style="shape=partialRectangle;html=1;whiteSpace=wrap;connectable=0;fillColor=none;top=0;left=0;bottom=0;right=0;overflow=hidden;strokeColor=inherit;fontSize=16;fontColor=default;" vertex="1" parent="tBmuuQblktAwGQAZ4ZNW-54">
          <mxGeometry width="47" height="30" as="geometry">
            <mxRectangle width="47" height="30" as="alternateBounds" />
          </mxGeometry>
        </mxCell>
        <mxCell id="tBmuuQblktAwGQAZ4ZNW-56" value="sub_category" style="shape=partialRectangle;html=1;whiteSpace=wrap;connectable=0;fillColor=none;top=0;left=0;bottom=0;right=0;align=left;spacingLeft=6;overflow=hidden;strokeColor=inherit;fontSize=16;fontColor=default;" vertex="1" parent="tBmuuQblktAwGQAZ4ZNW-54">
          <mxGeometry x="47" width="163" height="30" as="geometry">
            <mxRectangle width="163" height="30" as="alternateBounds" />
          </mxGeometry>
        </mxCell>
        <mxCell id="tBmuuQblktAwGQAZ4ZNW-57" value="" style="shape=tableRow;horizontal=0;startSize=0;swimlaneHead=0;swimlaneBody=0;top=0;left=0;bottom=0;right=0;collapsible=0;dropTarget=0;fillColor=none;points=[[0,0.5],[1,0.5]];portConstraint=eastwest;strokeColor=inherit;fontSize=16;fontColor=default;" vertex="1" parent="tBmuuQblktAwGQAZ4ZNW-35">
          <mxGeometry y="240" width="210" height="30" as="geometry" />
        </mxCell>
        <mxCell id="tBmuuQblktAwGQAZ4ZNW-58" value="" style="shape=partialRectangle;html=1;whiteSpace=wrap;connectable=0;fillColor=none;top=0;left=0;bottom=0;right=0;overflow=hidden;strokeColor=inherit;fontSize=16;fontColor=default;" vertex="1" parent="tBmuuQblktAwGQAZ4ZNW-57">
          <mxGeometry width="47" height="30" as="geometry">
            <mxRectangle width="47" height="30" as="alternateBounds" />
          </mxGeometry>
        </mxCell>
        <mxCell id="tBmuuQblktAwGQAZ4ZNW-59" value="maintenance" style="shape=partialRectangle;html=1;whiteSpace=wrap;connectable=0;fillColor=none;top=0;left=0;bottom=0;right=0;align=left;spacingLeft=6;overflow=hidden;strokeColor=inherit;fontSize=16;fontColor=default;" vertex="1" parent="tBmuuQblktAwGQAZ4ZNW-57">
          <mxGeometry x="47" width="163" height="30" as="geometry">
            <mxRectangle width="163" height="30" as="alternateBounds" />
          </mxGeometry>
        </mxCell>
        <mxCell id="tBmuuQblktAwGQAZ4ZNW-60" value="" style="shape=tableRow;horizontal=0;startSize=0;swimlaneHead=0;swimlaneBody=0;top=0;left=0;bottom=0;right=0;collapsible=0;dropTarget=0;fillColor=none;points=[[0,0.5],[1,0.5]];portConstraint=eastwest;strokeColor=inherit;fontSize=16;fontColor=default;" vertex="1" parent="tBmuuQblktAwGQAZ4ZNW-35">
          <mxGeometry y="270" width="210" height="30" as="geometry" />
        </mxCell>
        <mxCell id="tBmuuQblktAwGQAZ4ZNW-61" value="" style="shape=partialRectangle;html=1;whiteSpace=wrap;connectable=0;fillColor=none;top=0;left=0;bottom=0;right=0;overflow=hidden;strokeColor=inherit;fontSize=16;fontColor=default;" vertex="1" parent="tBmuuQblktAwGQAZ4ZNW-60">
          <mxGeometry width="47" height="30" as="geometry">
            <mxRectangle width="47" height="30" as="alternateBounds" />
          </mxGeometry>
        </mxCell>
        <mxCell id="tBmuuQblktAwGQAZ4ZNW-62" value="cost" style="shape=partialRectangle;html=1;whiteSpace=wrap;connectable=0;fillColor=none;top=0;left=0;bottom=0;right=0;align=left;spacingLeft=6;overflow=hidden;strokeColor=inherit;fontSize=16;fontColor=default;" vertex="1" parent="tBmuuQblktAwGQAZ4ZNW-60">
          <mxGeometry x="47" width="163" height="30" as="geometry">
            <mxRectangle width="163" height="30" as="alternateBounds" />
          </mxGeometry>
        </mxCell>
        <mxCell id="tBmuuQblktAwGQAZ4ZNW-63" value="" style="shape=tableRow;horizontal=0;startSize=0;swimlaneHead=0;swimlaneBody=0;top=0;left=0;bottom=0;right=0;collapsible=0;dropTarget=0;fillColor=none;points=[[0,0.5],[1,0.5]];portConstraint=eastwest;strokeColor=inherit;fontSize=16;fontColor=default;" vertex="1" parent="tBmuuQblktAwGQAZ4ZNW-35">
          <mxGeometry y="300" width="210" height="30" as="geometry" />
        </mxCell>
        <mxCell id="tBmuuQblktAwGQAZ4ZNW-64" value="" style="shape=partialRectangle;html=1;whiteSpace=wrap;connectable=0;fillColor=none;top=0;left=0;bottom=0;right=0;overflow=hidden;strokeColor=inherit;fontSize=16;fontColor=default;" vertex="1" parent="tBmuuQblktAwGQAZ4ZNW-63">
          <mxGeometry width="47" height="30" as="geometry">
            <mxRectangle width="47" height="30" as="alternateBounds" />
          </mxGeometry>
        </mxCell>
        <mxCell id="tBmuuQblktAwGQAZ4ZNW-65" value="product_line" style="shape=partialRectangle;html=1;whiteSpace=wrap;connectable=0;fillColor=none;top=0;left=0;bottom=0;right=0;align=left;spacingLeft=6;overflow=hidden;strokeColor=inherit;fontSize=16;fontColor=default;" vertex="1" parent="tBmuuQblktAwGQAZ4ZNW-63">
          <mxGeometry x="47" width="163" height="30" as="geometry">
            <mxRectangle width="163" height="30" as="alternateBounds" />
          </mxGeometry>
        </mxCell>
        <mxCell id="tBmuuQblktAwGQAZ4ZNW-66" value="" style="shape=tableRow;horizontal=0;startSize=0;swimlaneHead=0;swimlaneBody=0;top=0;left=0;bottom=0;right=0;collapsible=0;dropTarget=0;fillColor=none;points=[[0,0.5],[1,0.5]];portConstraint=eastwest;strokeColor=inherit;fontSize=16;fontColor=default;" vertex="1" parent="tBmuuQblktAwGQAZ4ZNW-35">
          <mxGeometry y="330" width="210" height="30" as="geometry" />
        </mxCell>
        <mxCell id="tBmuuQblktAwGQAZ4ZNW-67" value="" style="shape=partialRectangle;html=1;whiteSpace=wrap;connectable=0;fillColor=none;top=0;left=0;bottom=0;right=0;overflow=hidden;strokeColor=inherit;fontSize=16;fontColor=default;" vertex="1" parent="tBmuuQblktAwGQAZ4ZNW-66">
          <mxGeometry width="47" height="30" as="geometry">
            <mxRectangle width="47" height="30" as="alternateBounds" />
          </mxGeometry>
        </mxCell>
        <mxCell id="tBmuuQblktAwGQAZ4ZNW-68" value="start_date" style="shape=partialRectangle;html=1;whiteSpace=wrap;connectable=0;fillColor=none;top=0;left=0;bottom=0;right=0;align=left;spacingLeft=6;overflow=hidden;strokeColor=inherit;fontSize=16;fontColor=default;" vertex="1" parent="tBmuuQblktAwGQAZ4ZNW-66">
          <mxGeometry x="47" width="163" height="30" as="geometry">
            <mxRectangle width="163" height="30" as="alternateBounds" />
          </mxGeometry>
        </mxCell>
        <mxCell id="tBmuuQblktAwGQAZ4ZNW-69" value="gold.fact_sales" style="shape=table;startSize=30;container=1;collapsible=0;childLayout=tableLayout;fixedRows=1;rowLines=0;fontStyle=0;strokeColor=default;fontSize=16;fillColor=light-dark(#FFFFFF,#3399FF);fontColor=light-dark(#000000,#000000);" vertex="1" parent="1">
          <mxGeometry x="362.5" y="1330" width="210" height="300" as="geometry" />
        </mxCell>
        <mxCell id="tBmuuQblktAwGQAZ4ZNW-70" value="" style="shape=tableRow;horizontal=0;startSize=0;swimlaneHead=0;swimlaneBody=0;top=0;left=0;bottom=0;right=0;collapsible=0;dropTarget=0;fillColor=none;points=[[0,0.5],[1,0.5]];portConstraint=eastwest;strokeColor=inherit;fontSize=16;" vertex="1" parent="tBmuuQblktAwGQAZ4ZNW-69">
          <mxGeometry y="30" width="210" height="30" as="geometry" />
        </mxCell>
        <mxCell id="tBmuuQblktAwGQAZ4ZNW-71" value="" style="shape=partialRectangle;html=1;whiteSpace=wrap;connectable=0;fillColor=none;top=0;left=0;bottom=0;right=0;overflow=hidden;pointerEvents=1;strokeColor=inherit;fontSize=16;" vertex="1" parent="tBmuuQblktAwGQAZ4ZNW-70">
          <mxGeometry width="47" height="30" as="geometry">
            <mxRectangle width="47" height="30" as="alternateBounds" />
          </mxGeometry>
        </mxCell>
        <mxCell id="tBmuuQblktAwGQAZ4ZNW-72" value="order_num" style="shape=partialRectangle;html=1;whiteSpace=wrap;connectable=0;fillColor=none;top=0;left=0;bottom=0;right=0;align=left;spacingLeft=6;overflow=hidden;strokeColor=inherit;fontSize=16;" vertex="1" parent="tBmuuQblktAwGQAZ4ZNW-70">
          <mxGeometry x="47" width="163" height="30" as="geometry">
            <mxRectangle width="163" height="30" as="alternateBounds" />
          </mxGeometry>
        </mxCell>
        <mxCell id="tBmuuQblktAwGQAZ4ZNW-73" value="" style="shape=tableRow;horizontal=0;startSize=0;swimlaneHead=0;swimlaneBody=0;top=0;left=0;bottom=0;right=0;collapsible=0;dropTarget=0;fillColor=none;points=[[0,0.5],[1,0.5]];portConstraint=eastwest;strokeColor=inherit;fontSize=16;" vertex="1" parent="tBmuuQblktAwGQAZ4ZNW-69">
          <mxGeometry y="60" width="210" height="30" as="geometry" />
        </mxCell>
        <mxCell id="tBmuuQblktAwGQAZ4ZNW-74" value="FK1" style="shape=partialRectangle;html=1;whiteSpace=wrap;connectable=0;fillColor=none;top=0;left=0;bottom=0;right=0;overflow=hidden;strokeColor=inherit;fontSize=16;" vertex="1" parent="tBmuuQblktAwGQAZ4ZNW-73">
          <mxGeometry width="47" height="30" as="geometry">
            <mxRectangle width="47" height="30" as="alternateBounds" />
          </mxGeometry>
        </mxCell>
        <mxCell id="tBmuuQblktAwGQAZ4ZNW-75" value="product_key" style="shape=partialRectangle;html=1;whiteSpace=wrap;connectable=0;fillColor=none;top=0;left=0;bottom=0;right=0;align=left;spacingLeft=6;overflow=hidden;strokeColor=inherit;fontSize=16;" vertex="1" parent="tBmuuQblktAwGQAZ4ZNW-73">
          <mxGeometry x="47" width="163" height="30" as="geometry">
            <mxRectangle width="163" height="30" as="alternateBounds" />
          </mxGeometry>
        </mxCell>
        <mxCell id="tBmuuQblktAwGQAZ4ZNW-76" value="" style="shape=tableRow;horizontal=0;startSize=0;swimlaneHead=0;swimlaneBody=0;top=0;left=0;bottom=0;right=0;collapsible=0;dropTarget=0;fillColor=none;points=[[0,0.5],[1,0.5]];portConstraint=eastwest;strokeColor=inherit;fontSize=16;" vertex="1" parent="tBmuuQblktAwGQAZ4ZNW-69">
          <mxGeometry y="90" width="210" height="30" as="geometry" />
        </mxCell>
        <mxCell id="tBmuuQblktAwGQAZ4ZNW-77" value="FK2" style="shape=partialRectangle;html=1;whiteSpace=wrap;connectable=0;fillColor=none;top=0;left=0;bottom=0;right=0;overflow=hidden;strokeColor=inherit;fontSize=16;" vertex="1" parent="tBmuuQblktAwGQAZ4ZNW-76">
          <mxGeometry width="47" height="30" as="geometry">
            <mxRectangle width="47" height="30" as="alternateBounds" />
          </mxGeometry>
        </mxCell>
        <mxCell id="tBmuuQblktAwGQAZ4ZNW-78" value="customer_key" style="shape=partialRectangle;html=1;whiteSpace=wrap;connectable=0;fillColor=none;top=0;left=0;bottom=0;right=0;align=left;spacingLeft=6;overflow=hidden;strokeColor=inherit;fontSize=16;" vertex="1" parent="tBmuuQblktAwGQAZ4ZNW-76">
          <mxGeometry x="47" width="163" height="30" as="geometry">
            <mxRectangle width="163" height="30" as="alternateBounds" />
          </mxGeometry>
        </mxCell>
        <mxCell id="tBmuuQblktAwGQAZ4ZNW-79" value="" style="shape=tableRow;horizontal=0;startSize=0;swimlaneHead=0;swimlaneBody=0;top=0;left=0;bottom=0;right=0;collapsible=0;dropTarget=0;fillColor=none;points=[[0,0.5],[1,0.5]];portConstraint=eastwest;strokeColor=inherit;fontSize=16;" vertex="1" parent="tBmuuQblktAwGQAZ4ZNW-69">
          <mxGeometry y="120" width="210" height="30" as="geometry" />
        </mxCell>
        <mxCell id="tBmuuQblktAwGQAZ4ZNW-80" value="" style="shape=partialRectangle;html=1;whiteSpace=wrap;connectable=0;fillColor=none;top=0;left=0;bottom=0;right=0;overflow=hidden;strokeColor=inherit;fontSize=16;" vertex="1" parent="tBmuuQblktAwGQAZ4ZNW-79">
          <mxGeometry width="47" height="30" as="geometry">
            <mxRectangle width="47" height="30" as="alternateBounds" />
          </mxGeometry>
        </mxCell>
        <mxCell id="tBmuuQblktAwGQAZ4ZNW-81" value="order_date" style="shape=partialRectangle;html=1;whiteSpace=wrap;connectable=0;fillColor=none;top=0;left=0;bottom=0;right=0;align=left;spacingLeft=6;overflow=hidden;strokeColor=inherit;fontSize=16;" vertex="1" parent="tBmuuQblktAwGQAZ4ZNW-79">
          <mxGeometry x="47" width="163" height="30" as="geometry">
            <mxRectangle width="163" height="30" as="alternateBounds" />
          </mxGeometry>
        </mxCell>
        <mxCell id="tBmuuQblktAwGQAZ4ZNW-82" value="" style="shape=tableRow;horizontal=0;startSize=0;swimlaneHead=0;swimlaneBody=0;top=0;left=0;bottom=0;right=0;collapsible=0;dropTarget=0;fillColor=none;points=[[0,0.5],[1,0.5]];portConstraint=eastwest;strokeColor=inherit;fontSize=16;" vertex="1" parent="tBmuuQblktAwGQAZ4ZNW-69">
          <mxGeometry y="150" width="210" height="30" as="geometry" />
        </mxCell>
        <mxCell id="tBmuuQblktAwGQAZ4ZNW-83" value="" style="shape=partialRectangle;html=1;whiteSpace=wrap;connectable=0;fillColor=none;top=0;left=0;bottom=0;right=0;overflow=hidden;strokeColor=inherit;fontSize=16;" vertex="1" parent="tBmuuQblktAwGQAZ4ZNW-82">
          <mxGeometry width="47" height="30" as="geometry">
            <mxRectangle width="47" height="30" as="alternateBounds" />
          </mxGeometry>
        </mxCell>
        <mxCell id="tBmuuQblktAwGQAZ4ZNW-84" value="shipping_date" style="shape=partialRectangle;html=1;whiteSpace=wrap;connectable=0;fillColor=none;top=0;left=0;bottom=0;right=0;align=left;spacingLeft=6;overflow=hidden;strokeColor=inherit;fontSize=16;" vertex="1" parent="tBmuuQblktAwGQAZ4ZNW-82">
          <mxGeometry x="47" width="163" height="30" as="geometry">
            <mxRectangle width="163" height="30" as="alternateBounds" />
          </mxGeometry>
        </mxCell>
        <mxCell id="tBmuuQblktAwGQAZ4ZNW-85" value="" style="shape=tableRow;horizontal=0;startSize=0;swimlaneHead=0;swimlaneBody=0;top=0;left=0;bottom=0;right=0;collapsible=0;dropTarget=0;fillColor=none;points=[[0,0.5],[1,0.5]];portConstraint=eastwest;strokeColor=inherit;fontSize=16;" vertex="1" parent="tBmuuQblktAwGQAZ4ZNW-69">
          <mxGeometry y="180" width="210" height="30" as="geometry" />
        </mxCell>
        <mxCell id="tBmuuQblktAwGQAZ4ZNW-86" value="" style="shape=partialRectangle;html=1;whiteSpace=wrap;connectable=0;fillColor=none;top=0;left=0;bottom=0;right=0;overflow=hidden;strokeColor=inherit;fontSize=16;" vertex="1" parent="tBmuuQblktAwGQAZ4ZNW-85">
          <mxGeometry width="47" height="30" as="geometry">
            <mxRectangle width="47" height="30" as="alternateBounds" />
          </mxGeometry>
        </mxCell>
        <mxCell id="tBmuuQblktAwGQAZ4ZNW-87" value="due_date" style="shape=partialRectangle;html=1;whiteSpace=wrap;connectable=0;fillColor=none;top=0;left=0;bottom=0;right=0;align=left;spacingLeft=6;overflow=hidden;strokeColor=inherit;fontSize=16;" vertex="1" parent="tBmuuQblktAwGQAZ4ZNW-85">
          <mxGeometry x="47" width="163" height="30" as="geometry">
            <mxRectangle width="163" height="30" as="alternateBounds" />
          </mxGeometry>
        </mxCell>
        <mxCell id="tBmuuQblktAwGQAZ4ZNW-88" value="" style="shape=tableRow;horizontal=0;startSize=0;swimlaneHead=0;swimlaneBody=0;top=0;left=0;bottom=0;right=0;collapsible=0;dropTarget=0;fillColor=none;points=[[0,0.5],[1,0.5]];portConstraint=eastwest;strokeColor=inherit;fontSize=16;" vertex="1" parent="tBmuuQblktAwGQAZ4ZNW-69">
          <mxGeometry y="210" width="210" height="30" as="geometry" />
        </mxCell>
        <mxCell id="tBmuuQblktAwGQAZ4ZNW-89" value="" style="shape=partialRectangle;html=1;whiteSpace=wrap;connectable=0;fillColor=none;top=0;left=0;bottom=0;right=0;overflow=hidden;strokeColor=inherit;fontSize=16;" vertex="1" parent="tBmuuQblktAwGQAZ4ZNW-88">
          <mxGeometry width="47" height="30" as="geometry">
            <mxRectangle width="47" height="30" as="alternateBounds" />
          </mxGeometry>
        </mxCell>
        <mxCell id="tBmuuQblktAwGQAZ4ZNW-90" value="sales_amount" style="shape=partialRectangle;html=1;whiteSpace=wrap;connectable=0;fillColor=none;top=0;left=0;bottom=0;right=0;align=left;spacingLeft=6;overflow=hidden;strokeColor=inherit;fontSize=16;" vertex="1" parent="tBmuuQblktAwGQAZ4ZNW-88">
          <mxGeometry x="47" width="163" height="30" as="geometry">
            <mxRectangle width="163" height="30" as="alternateBounds" />
          </mxGeometry>
        </mxCell>
        <mxCell id="tBmuuQblktAwGQAZ4ZNW-91" value="" style="shape=tableRow;horizontal=0;startSize=0;swimlaneHead=0;swimlaneBody=0;top=0;left=0;bottom=0;right=0;collapsible=0;dropTarget=0;fillColor=none;points=[[0,0.5],[1,0.5]];portConstraint=eastwest;strokeColor=inherit;fontSize=16;" vertex="1" parent="tBmuuQblktAwGQAZ4ZNW-69">
          <mxGeometry y="240" width="210" height="30" as="geometry" />
        </mxCell>
        <mxCell id="tBmuuQblktAwGQAZ4ZNW-92" value="" style="shape=partialRectangle;html=1;whiteSpace=wrap;connectable=0;fillColor=none;top=0;left=0;bottom=0;right=0;overflow=hidden;strokeColor=inherit;fontSize=16;" vertex="1" parent="tBmuuQblktAwGQAZ4ZNW-91">
          <mxGeometry width="47" height="30" as="geometry">
            <mxRectangle width="47" height="30" as="alternateBounds" />
          </mxGeometry>
        </mxCell>
        <mxCell id="tBmuuQblktAwGQAZ4ZNW-93" value="quantity" style="shape=partialRectangle;html=1;whiteSpace=wrap;connectable=0;fillColor=none;top=0;left=0;bottom=0;right=0;align=left;spacingLeft=6;overflow=hidden;strokeColor=inherit;fontSize=16;" vertex="1" parent="tBmuuQblktAwGQAZ4ZNW-91">
          <mxGeometry x="47" width="163" height="30" as="geometry">
            <mxRectangle width="163" height="30" as="alternateBounds" />
          </mxGeometry>
        </mxCell>
        <mxCell id="tBmuuQblktAwGQAZ4ZNW-94" value="" style="shape=tableRow;horizontal=0;startSize=0;swimlaneHead=0;swimlaneBody=0;top=0;left=0;bottom=0;right=0;collapsible=0;dropTarget=0;fillColor=none;points=[[0,0.5],[1,0.5]];portConstraint=eastwest;strokeColor=inherit;fontSize=16;" vertex="1" parent="tBmuuQblktAwGQAZ4ZNW-69">
          <mxGeometry y="270" width="210" height="30" as="geometry" />
        </mxCell>
        <mxCell id="tBmuuQblktAwGQAZ4ZNW-95" value="" style="shape=partialRectangle;html=1;whiteSpace=wrap;connectable=0;fillColor=none;top=0;left=0;bottom=0;right=0;overflow=hidden;strokeColor=inherit;fontSize=16;" vertex="1" parent="tBmuuQblktAwGQAZ4ZNW-94">
          <mxGeometry width="47" height="30" as="geometry">
            <mxRectangle width="47" height="30" as="alternateBounds" />
          </mxGeometry>
        </mxCell>
        <mxCell id="tBmuuQblktAwGQAZ4ZNW-96" value="sls_price" style="shape=partialRectangle;html=1;whiteSpace=wrap;connectable=0;fillColor=none;top=0;left=0;bottom=0;right=0;align=left;spacingLeft=6;overflow=hidden;strokeColor=inherit;fontSize=16;" vertex="1" parent="tBmuuQblktAwGQAZ4ZNW-94">
          <mxGeometry x="47" width="163" height="30" as="geometry">
            <mxRectangle width="163" height="30" as="alternateBounds" />
          </mxGeometry>
        </mxCell>
        <mxCell id="tBmuuQblktAwGQAZ4ZNW-103" value="" style="edgeStyle=entityRelationEdgeStyle;fontSize=12;html=1;endArrow=ERzeroToMany;startArrow=ERmandOne;rounded=0;exitX=1;exitY=0.5;exitDx=0;exitDy=0;" edge="1" parent="1" source="tBmuuQblktAwGQAZ4ZNW-5" target="tBmuuQblktAwGQAZ4ZNW-76">
          <mxGeometry width="100" height="100" relative="1" as="geometry">
            <mxPoint x="410" y="1560" as="sourcePoint" />
            <mxPoint x="510" y="1460" as="targetPoint" />
          </mxGeometry>
        </mxCell>
        <mxCell id="tBmuuQblktAwGQAZ4ZNW-104" value="" style="edgeStyle=entityRelationEdgeStyle;fontSize=12;html=1;endArrow=ERzeroToMany;startArrow=ERmandOne;rounded=0;exitX=0;exitY=0.5;exitDx=0;exitDy=0;" edge="1" parent="1" source="tBmuuQblktAwGQAZ4ZNW-36" target="tBmuuQblktAwGQAZ4ZNW-73">
          <mxGeometry width="100" height="100" relative="1" as="geometry">
            <mxPoint x="410" y="1560" as="sourcePoint" />
            <mxPoint x="510" y="1460" as="targetPoint" />
          </mxGeometry>
        </mxCell>
        <mxCell id="tBmuuQblktAwGQAZ4ZNW-105" value="Item" style="text;strokeColor=none;fillColor=none;spacingLeft=4;spacingRight=4;overflow=hidden;rotatable=0;points=[[0,0.5],[1,0.5]];portConstraint=eastwest;fontSize=12;whiteSpace=wrap;html=1;" vertex="1" parent="1">
          <mxGeometry x="440" y="1490" width="40" height="30" as="geometry" />
        </mxCell>
        <mxCell id="tBmuuQblktAwGQAZ4ZNW-106" value="&lt;h1 style=&quot;margin-top: 0px;&quot;&gt;Sales Calculations&lt;/h1&gt;&lt;p&gt;&lt;font style=&quot;font-size: 16px;&quot;&gt;Sales = Quantity * Price&lt;/font&gt;&lt;/p&gt;" style="text;html=1;whiteSpace=wrap;overflow=hidden;rounded=0;" vertex="1" parent="1">
          <mxGeometry x="414" y="1650" width="240" height="80" as="geometry" />
        </mxCell>
        <mxCell id="tBmuuQblktAwGQAZ4ZNW-107" value="" style="endArrow=none;dashed=1;html=1;dashPattern=1 3;strokeWidth=2;rounded=0;" edge="1" parent="1" source="tBmuuQblktAwGQAZ4ZNW-106" target="tBmuuQblktAwGQAZ4ZNW-88">
          <mxGeometry width="50" height="50" relative="1" as="geometry">
            <mxPoint x="440" y="1570" as="sourcePoint" />
            <mxPoint x="490" y="1520" as="targetPoint" />
          </mxGeometry>
        </mxCell>
        <mxCell id="tBmuuQblktAwGQAZ4ZNW-108" value="" style="rounded=0;whiteSpace=wrap;html=1;dashed=1;fillColor=none;" vertex="1" parent="1">
          <mxGeometry x="758.12" y="200" width="190" height="370" as="geometry" />
        </mxCell>
        <mxCell id="tBmuuQblktAwGQAZ4ZNW-109" value="&lt;font style=&quot;font-size: 16px;&quot;&gt;GOLD LAYER&lt;/font&gt;" style="rounded=1;whiteSpace=wrap;html=1;fillColor=light-dark(#BAC8D3,#CCCC00);dashed=1;fontSize=24;strokeColor=#23445d;fontColor=light-dark(#000000,#000000);" vertex="1" parent="1">
          <mxGeometry x="758.12" y="140" width="190" height="50" as="geometry" />
        </mxCell>
        <mxCell id="tBmuuQblktAwGQAZ4ZNW-110" value="&lt;span style=&quot;font-size: 16px;&quot;&gt;fact_sales&lt;/span&gt;" style="rounded=1;whiteSpace=wrap;html=1;fillColor=light-dark(#BAC8D3,#CCCC00);dashed=1;fontSize=24;strokeColor=#23445d;fontColor=light-dark(#000000,#000000);" vertex="1" parent="1">
          <mxGeometry x="774.37" y="270" width="165" height="30" as="geometry" />
        </mxCell>
        <mxCell id="tBmuuQblktAwGQAZ4ZNW-111" value="&lt;font style=&quot;font-size: 16px;&quot;&gt;dim_customers&lt;/font&gt;" style="rounded=1;whiteSpace=wrap;html=1;fillColor=light-dark(#BAC8D3,#CCCC00);dashed=1;fontSize=24;strokeColor=#23445d;fontColor=light-dark(#000000,#000000);" vertex="1" parent="1">
          <mxGeometry x="774.37" y="380" width="165" height="30" as="geometry" />
        </mxCell>
        <mxCell id="tBmuuQblktAwGQAZ4ZNW-112" value="&lt;font style=&quot;font-size: 16px;&quot;&gt;dim_products&lt;/font&gt;" style="rounded=1;whiteSpace=wrap;html=1;fillColor=light-dark(#BAC8D3,#CCCC00);dashed=1;fontSize=24;strokeColor=#23445d;fontColor=light-dark(#000000,#000000);" vertex="1" parent="1">
          <mxGeometry x="774.37" y="480" width="165" height="30" as="geometry" />
        </mxCell>
        <mxCell id="tBmuuQblktAwGQAZ4ZNW-118" value="" style="endArrow=classic;html=1;rounded=0;entryX=0;entryY=0.5;entryDx=0;entryDy=0;exitX=1;exitY=0.5;exitDx=0;exitDy=0;" edge="1" parent="1" source="SzAG1CnnxhR4tHEEF76X-3" target="tBmuuQblktAwGQAZ4ZNW-110">
          <mxGeometry width="50" height="50" relative="1" as="geometry">
            <mxPoint x="570" y="320" as="sourcePoint" />
            <mxPoint x="620" y="270" as="targetPoint" />
          </mxGeometry>
        </mxCell>
        <mxCell id="tBmuuQblktAwGQAZ4ZNW-119" value="" style="endArrow=classic;html=1;rounded=0;entryX=0;entryY=0.5;entryDx=0;entryDy=0;" edge="1" parent="1" target="tBmuuQblktAwGQAZ4ZNW-111">
          <mxGeometry width="50" height="50" relative="1" as="geometry">
            <mxPoint x="670" y="285" as="sourcePoint" />
            <mxPoint x="784" y="295" as="targetPoint" />
          </mxGeometry>
        </mxCell>
        <mxCell id="tBmuuQblktAwGQAZ4ZNW-120" value="" style="endArrow=classic;html=1;rounded=0;entryX=0;entryY=0.5;entryDx=0;entryDy=0;exitX=1;exitY=0.5;exitDx=0;exitDy=0;" edge="1" parent="1" source="SzAG1CnnxhR4tHEEF76X-7" target="tBmuuQblktAwGQAZ4ZNW-111">
          <mxGeometry width="50" height="50" relative="1" as="geometry">
            <mxPoint x="680" y="295" as="sourcePoint" />
            <mxPoint x="784" y="405" as="targetPoint" />
          </mxGeometry>
        </mxCell>
        <mxCell id="tBmuuQblktAwGQAZ4ZNW-121" value="" style="endArrow=classic;html=1;rounded=0;entryX=0;entryY=0.5;entryDx=0;entryDy=0;exitX=1;exitY=0.5;exitDx=0;exitDy=0;" edge="1" parent="1" source="SzAG1CnnxhR4tHEEF76X-6" target="tBmuuQblktAwGQAZ4ZNW-111">
          <mxGeometry width="50" height="50" relative="1" as="geometry">
            <mxPoint x="675" y="505" as="sourcePoint" />
            <mxPoint x="784" y="405" as="targetPoint" />
          </mxGeometry>
        </mxCell>
        <mxCell id="tBmuuQblktAwGQAZ4ZNW-122" value="" style="endArrow=classic;html=1;rounded=0;entryX=0;entryY=0.5;entryDx=0;entryDy=0;exitX=1;exitY=0.5;exitDx=0;exitDy=0;" edge="1" parent="1" source="SzAG1CnnxhR4tHEEF76X-8" target="tBmuuQblktAwGQAZ4ZNW-112">
          <mxGeometry width="50" height="50" relative="1" as="geometry">
            <mxPoint x="675" y="505" as="sourcePoint" />
            <mxPoint x="784" y="405" as="targetPoint" />
          </mxGeometry>
        </mxCell>
        <mxCell id="tBmuuQblktAwGQAZ4ZNW-123" value="" style="endArrow=classic;html=1;rounded=0;entryX=0;entryY=0.5;entryDx=0;entryDy=0;exitX=1;exitY=0.5;exitDx=0;exitDy=0;" edge="1" parent="1" source="SzAG1CnnxhR4tHEEF76X-5" target="tBmuuQblktAwGQAZ4ZNW-112">
          <mxGeometry width="50" height="50" relative="1" as="geometry">
            <mxPoint x="678" y="551" as="sourcePoint" />
            <mxPoint x="784" y="505" as="targetPoint" />
          </mxGeometry>
        </mxCell>
      </root>
    </mxGraphModel>
  </diagram>
</mxfile>
